<mxfile host="app.diagrams.net" modified="2024-06-19T13:39:10.566Z" agent="Mozilla/5.0 (Macintosh; Intel Mac OS X 10_15_7) AppleWebKit/537.36 (KHTML, like Gecko) Chrome/125.0.0.0 Safari/537.36" etag="GF17LC4L14K8IJmBB4Us" version="24.3.1" type="github">
  <diagram name="第 1 页" id="udKiI64MfUfiLMLDO-VF">
    <mxGraphModel dx="798" dy="496" grid="1" gridSize="10" guides="1" tooltips="1" connect="1" arrows="1" fold="1" page="1" pageScale="1" pageWidth="827" pageHeight="1169" math="0" shadow="0">
      <root>
        <mxCell id="0" />
        <mxCell id="1" parent="0" />
        <mxCell id="J_PHHVH5BMvP7f2F9xQ3-13" value="" style="rounded=0;whiteSpace=wrap;html=1;" vertex="1" parent="1">
          <mxGeometry x="100" y="340" width="360" height="240" as="geometry" />
        </mxCell>
        <mxCell id="J_PHHVH5BMvP7f2F9xQ3-5" value="" style="rounded=0;whiteSpace=wrap;html=1;" vertex="1" parent="1">
          <mxGeometry x="100" y="90" width="360" height="240" as="geometry" />
        </mxCell>
        <mxCell id="J_PHHVH5BMvP7f2F9xQ3-11" value="4" style="rounded=0;whiteSpace=wrap;html=1;fillColor=#ffe6cc;strokeColor=#d79b00;" vertex="1" parent="1">
          <mxGeometry x="590" y="80" width="120" height="220" as="geometry" />
        </mxCell>
        <mxCell id="J_PHHVH5BMvP7f2F9xQ3-2" value="3" style="rounded=0;whiteSpace=wrap;html=1;fillColor=#dae8fc;strokeColor=#6c8ebf;" vertex="1" parent="1">
          <mxGeometry x="290" y="90" width="120" height="220" as="geometry" />
        </mxCell>
        <mxCell id="J_PHHVH5BMvP7f2F9xQ3-3" value="2" style="rounded=0;whiteSpace=wrap;html=1;fillColor=#d5e8d4;strokeColor=#82b366;" vertex="1" parent="1">
          <mxGeometry x="210" y="90" width="120" height="220" as="geometry" />
        </mxCell>
        <mxCell id="J_PHHVH5BMvP7f2F9xQ3-4" value="1" style="rounded=0;whiteSpace=wrap;html=1;fillColor=#e1d5e7;strokeColor=#9673a6;" vertex="1" parent="1">
          <mxGeometry x="150" y="90" width="120" height="220" as="geometry" />
        </mxCell>
        <mxCell id="J_PHHVH5BMvP7f2F9xQ3-7" value="13" style="text;html=1;align=center;verticalAlign=middle;whiteSpace=wrap;rounded=0;" vertex="1" parent="1">
          <mxGeometry x="430" y="20" width="60" height="30" as="geometry" />
        </mxCell>
        <mxCell id="J_PHHVH5BMvP7f2F9xQ3-9" value="" style="endArrow=classic;html=1;rounded=0;" edge="1" parent="1">
          <mxGeometry width="50" height="50" relative="1" as="geometry">
            <mxPoint x="570" y="10" as="sourcePoint" />
            <mxPoint x="440" y="80" as="targetPoint" />
          </mxGeometry>
        </mxCell>
        <mxCell id="J_PHHVH5BMvP7f2F9xQ3-10" value="26" style="text;html=1;align=center;verticalAlign=middle;whiteSpace=wrap;rounded=0;" vertex="1" parent="1">
          <mxGeometry x="400" y="130" width="60" height="30" as="geometry" />
        </mxCell>
        <mxCell id="J_PHHVH5BMvP7f2F9xQ3-12" value="1" style="rounded=0;whiteSpace=wrap;html=1;fillColor=#e1d5e7;strokeColor=#9673a6;" vertex="1" parent="1">
          <mxGeometry x="340" y="310" width="120" height="220" as="geometry" />
        </mxCell>
        <mxCell id="J_PHHVH5BMvP7f2F9xQ3-14" value="3" style="rounded=0;whiteSpace=wrap;html=1;fillColor=#dae8fc;strokeColor=#6c8ebf;" vertex="1" parent="1">
          <mxGeometry x="210" y="350" width="120" height="220" as="geometry" />
        </mxCell>
        <mxCell id="J_PHHVH5BMvP7f2F9xQ3-15" value="2" style="rounded=0;whiteSpace=wrap;html=1;fillColor=#d5e8d4;strokeColor=#82b366;" vertex="1" parent="1">
          <mxGeometry x="150" y="350" width="120" height="220" as="geometry" />
        </mxCell>
        <mxCell id="J_PHHVH5BMvP7f2F9xQ3-16" value="1" style="rounded=0;whiteSpace=wrap;html=1;fillColor=#e1d5e7;strokeColor=#9673a6;" vertex="1" parent="1">
          <mxGeometry x="100" y="350" width="120" height="220" as="geometry" />
        </mxCell>
        <mxCell id="J_PHHVH5BMvP7f2F9xQ3-17" value="26" style="text;html=1;align=center;verticalAlign=middle;whiteSpace=wrap;rounded=0;" vertex="1" parent="1">
          <mxGeometry x="400" y="390" width="60" height="30" as="geometry" />
        </mxCell>
        <mxCell id="J_PHHVH5BMvP7f2F9xQ3-18" value="" style="rounded=0;whiteSpace=wrap;html=1;" vertex="1" parent="1">
          <mxGeometry x="100" y="610" width="360" height="240" as="geometry" />
        </mxCell>
        <mxCell id="J_PHHVH5BMvP7f2F9xQ3-21" value="1" style="rounded=0;whiteSpace=wrap;html=1;fillColor=#e1d5e7;strokeColor=#9673a6;" vertex="1" parent="1">
          <mxGeometry x="220" y="610" width="120" height="220" as="geometry" />
        </mxCell>
        <mxCell id="J_PHHVH5BMvP7f2F9xQ3-19" value="3" style="rounded=0;whiteSpace=wrap;html=1;fillColor=#dae8fc;strokeColor=#6c8ebf;" vertex="1" parent="1">
          <mxGeometry x="160" y="610" width="120" height="220" as="geometry" />
        </mxCell>
        <mxCell id="J_PHHVH5BMvP7f2F9xQ3-20" value="2" style="rounded=0;whiteSpace=wrap;html=1;fillColor=#d5e8d4;strokeColor=#82b366;" vertex="1" parent="1">
          <mxGeometry x="100" y="610" width="120" height="220" as="geometry" />
        </mxCell>
        <mxCell id="J_PHHVH5BMvP7f2F9xQ3-22" value="26" style="text;html=1;align=center;verticalAlign=middle;whiteSpace=wrap;rounded=0;" vertex="1" parent="1">
          <mxGeometry x="400" y="650" width="60" height="30" as="geometry" />
        </mxCell>
        <mxCell id="J_PHHVH5BMvP7f2F9xQ3-28" value="2" style="rounded=0;whiteSpace=wrap;html=1;fillColor=#d5e8d4;strokeColor=#82b366;" vertex="1" parent="1">
          <mxGeometry x="360" y="570" width="120" height="220" as="geometry" />
        </mxCell>
        <mxCell id="J_PHHVH5BMvP7f2F9xQ3-29" value="" style="rounded=0;whiteSpace=wrap;html=1;" vertex="1" parent="1">
          <mxGeometry x="100" y="890" width="360" height="240" as="geometry" />
        </mxCell>
        <mxCell id="J_PHHVH5BMvP7f2F9xQ3-35" value="3" style="rounded=0;whiteSpace=wrap;html=1;fillColor=#dae8fc;strokeColor=#6c8ebf;" vertex="1" parent="1">
          <mxGeometry x="590" y="900" width="120" height="220" as="geometry" />
        </mxCell>
        <mxCell id="J_PHHVH5BMvP7f2F9xQ3-30" value="1" style="rounded=0;whiteSpace=wrap;html=1;fillColor=#e1d5e7;strokeColor=#9673a6;" vertex="1" parent="1">
          <mxGeometry x="170" y="890" width="120" height="220" as="geometry" />
        </mxCell>
        <mxCell id="J_PHHVH5BMvP7f2F9xQ3-31" value="3" style="rounded=0;whiteSpace=wrap;html=1;fillColor=#dae8fc;strokeColor=#6c8ebf;" vertex="1" parent="1">
          <mxGeometry x="110" y="890" width="120" height="220" as="geometry" />
        </mxCell>
        <mxCell id="J_PHHVH5BMvP7f2F9xQ3-32" value="2" style="rounded=0;whiteSpace=wrap;html=1;fillColor=#d5e8d4;strokeColor=#82b366;" vertex="1" parent="1">
          <mxGeometry x="530" y="820" width="120" height="220" as="geometry" />
        </mxCell>
        <mxCell id="J_PHHVH5BMvP7f2F9xQ3-37" value="" style="rounded=0;whiteSpace=wrap;html=1;" vertex="1" parent="1">
          <mxGeometry x="500" y="345" width="360" height="240" as="geometry" />
        </mxCell>
        <mxCell id="J_PHHVH5BMvP7f2F9xQ3-42" value="1" style="rounded=0;whiteSpace=wrap;html=1;fillColor=#e1d5e7;strokeColor=#9673a6;" vertex="1" parent="1">
          <mxGeometry x="700" y="365" width="120" height="220" as="geometry" />
        </mxCell>
        <mxCell id="J_PHHVH5BMvP7f2F9xQ3-38" value="3" style="rounded=0;whiteSpace=wrap;html=1;fillColor=#dae8fc;strokeColor=#6c8ebf;" vertex="1" parent="1">
          <mxGeometry x="630" y="365" width="120" height="220" as="geometry" />
        </mxCell>
        <mxCell id="J_PHHVH5BMvP7f2F9xQ3-39" value="2" style="rounded=0;whiteSpace=wrap;html=1;fillColor=#d5e8d4;strokeColor=#82b366;" vertex="1" parent="1">
          <mxGeometry x="560" y="365" width="120" height="220" as="geometry" />
        </mxCell>
        <mxCell id="J_PHHVH5BMvP7f2F9xQ3-41" value="26" style="text;html=1;align=center;verticalAlign=middle;whiteSpace=wrap;rounded=0;" vertex="1" parent="1">
          <mxGeometry x="800" y="395" width="60" height="30" as="geometry" />
        </mxCell>
      </root>
    </mxGraphModel>
  </diagram>
</mxfile>
